<svg width="209" height="53" viewBox="0 0 209 53" fill="none" xmlns="http://www.w3.org/2000/svg">
<path d="M35.7774 26.8168C32.3609 28.8554 26.2891 31.1012 16.5398 30.5028L16.5398 33.3729L10.6039 29.334C10.0762 30.2045 10.1118 31.3998 10.1606 33.0402C10.1659 33.2165 10.1713 33.3979 10.1761 33.5846V52.5999C10.1761 52.5999 21.1281 52.5999 21.1281 44.0076L21.1281 38.9689H39.9028C48.6806 38.9689 55.965 25.3033 39.7922 23.4414C38.6701 24.7747 37.2883 25.9153 35.7774 26.8168Z" fill="url(#paint0_linear_180_3141)"/>
<g filter="url(#filter0_f_180_3141)">
<path d="M10.4476 24.7879L14.2566 22.1312V25.2833C14.2566 25.2833 32.3358 28.7973 41.9779 18.6687C41.9779 18.6687 41.7527 19.8158 41.4019 20.6662C40.379 23.1459 38.4575 25.2597 36.1293 26.8432L38.6612 26.8715C43.0632 26.6845 46.8403 28.2492 49.2042 32.8438C50.173 28.4397 49.6924 16.9755 38.6612 16.6221L22.8218 20.6662C22.8218 20.6662 6.71269 21.8158 10.4476 24.7879Z" fill="black" fill-opacity="0.16"/>
</g>
<path d="M12.9802 24.0024L16.5392 21.381V24.4913C16.5392 24.4913 33.4319 27.9586 42.4413 17.9645C42.4413 17.9645 42.2309 19.0963 41.9031 19.9355C40.9473 22.3822 39.1519 24.468 36.9765 26.0305L39.3422 26.0584C43.4553 25.8738 46.9846 27.4179 49.1933 31.9515C50.0985 27.6058 49.6495 16.2937 39.3422 15.9449L24.5423 19.9355C24.5423 19.9355 9.49038 21.0698 12.9802 24.0024Z" fill="url(#paint1_linear_180_3141)"/>
<mask id="mask0_180_3141" style="mask-type:alpha" maskUnits="userSpaceOnUse" x="10" y="25" width="39" height="28">
<path d="M35.8452 26.7765C32.3696 28.8121 26.69 31.1336 16.7723 30.5361L16.7724 33.4019L10.7339 29.369C10.1971 30.2383 10.2333 31.4318 10.283 33.0696C10.2883 33.2457 10.2938 33.4268 10.2988 33.6133V52.5998C10.2988 52.5998 21.4399 52.5998 21.4399 44.0205L21.4399 38.9894H40.539C49.4684 38.9894 53.7059 27.7749 37.2537 25.9158C36.1123 27.2471 36.8187 25.6288 35.8452 26.7765Z" fill="url(#paint2_linear_180_3141)"/>
</mask>
<g mask="url(#mask0_180_3141)">
<g filter="url(#filter1_f_180_3141)">
<path d="M2.94277 9.78605C4.92285 11.973 10.8911 16.9104 24.6568 17.3088L24.6568 20.0865L33.3178 14.1179L25.2393 8.38426C27.6242 8.83542 29.9213 9.23769 31.9825 9.54917C45.433 3.78913 43.8506 17.6132 43.8506 17.6132C43.8506 17.6132 44.2462 25.6769 33.93 25.914C24.0732 26.1405 17.9523 25.1007 17.9523 25.1007V22.0525L9.72251 28.2539L13.8374 31.1969C13.8374 34.14 13.475 36.5805 12.8628 37.9239C10.3722 43.3895 1.48961 43.3895 1.48961 43.3895V20.7238L1.24302 7.24269L1.49227 7.66608C1.92753 8.40554 2.36361 9.14639 2.94277 9.78605Z" fill="black" fill-opacity="0.16"/>
<path d="M1.19079 4.38711L1.16785 3.13306C1.16785 3.13306 13.7783 6.19604 24.7555 8.29229L24.6568 11.0422C24.6568 11.0422 8.09571 12.132 1.19079 4.38711Z" fill="black" fill-opacity="0.16"/>
</g>
</g>
<path d="M2.39498 9.22929C4.3502 11.4013 10.2436 16.3052 23.8364 16.7009L23.8364 19.4596L32.3887 13.5317L29.3524 11.126L24.6529 7.6807C27.0078 8.12879 29.0349 8.68467 31.0701 8.99402C44.3519 3.27319 42.7893 17.0032 42.7893 17.0032C42.7893 17.0032 42.8925 23.1305 32.8565 24.8933C24.7183 25.9105 16.4687 24.5803 16.4687 24.5803V21.5022L8.13904 27.6106L13.0759 31.002C13.0759 33.925 12.795 35.8414 12.1905 37.1756C9.73118 42.604 0.642334 42.604 0.642334 42.604V20.1139V6.50876L0.962686 7.12375C1.39248 7.85818 1.82309 8.59399 2.39498 9.22929Z" fill="url(#paint3_linear_180_3141)"/>
<path d="M0.642334 3.73221V2.62158C0.642334 2.62158 13.0945 5.66371 23.9339 7.7457L23.8364 10.4769C23.8364 10.4769 7.46058 11.4244 0.642334 3.73221Z" fill="url(#paint4_linear_180_3141)"/>
<mask id="mask1_180_3141" style="mask-type:alpha" maskUnits="userSpaceOnUse" x="0" y="1" width="44" height="42">
<path d="M2.27784 8.46703C4.2485 10.81 10.1884 16.0996 23.8886 16.5264L23.8886 19.5022L32.5084 13.1079L24.4684 6.96525C26.842 7.44859 29.1281 7.87956 31.1795 8.21325C44.5661 2.04235 42.9912 16.8525 42.9912 16.8525C42.9912 16.8525 43.3849 25.4914 33.1178 25.7454C23.3078 25.9881 17.4316 24.9866 17.4316 24.9866V21.6085L13.4922 32.5807C13.4922 42.8336 0.831586 42.9374 0.831586 42.9374L0.831588 20.1849L0.848474 5.63151L1.12481 6.52389C1.558 7.3161 1.70143 7.78174 2.27784 8.46703Z" fill="url(#paint5_linear_180_3141)"/>
<path d="M0.534182 2.68298L0.511353 1.33948C0.511353 1.33948 13.0619 4.62094 23.9868 6.86672L23.8886 9.8128C23.8886 9.8128 7.40628 10.9804 0.534182 2.68298Z" fill="url(#paint6_linear_180_3141)"/>
</mask>
<g mask="url(#mask1_180_3141)">
<g filter="url(#filter2_f_180_3141)">
<path d="M0.850533 5.03694C7.67787 13.4321 23.9062 12.1551 23.9062 12.1551L24.0133 8.94638L29.0725 12.8116L32.3433 12.6814C36.7425 12.4637 40.568 15.098 42.9303 20.4459C43.7582 12.6865 43.3675 1.98543 32.3433 1.57404L0.850474 1.46741C0.850474 1.46741 0.850531 2.95471 0.850533 5.03694Z" fill="black" fill-opacity="0.16"/>
</g>
</g>
<path d="M0.642334 3.73238C7.44596 11.5405 24.1688 10.4595 24.1688 10.4595L24.2754 7.47512L29.317 11.0701L32.5765 10.9489C36.9604 10.7464 40.3621 12.8768 42.7163 17.8507C43.5413 10.6339 43.5624 1.00096 32.5765 0.618348L0.642334 0.400513C0.642334 0.400513 0.642334 1.78879 0.642334 3.73238Z" fill="url(#paint7_linear_180_3141)"/>
<path d="M65.7046 38V10.112H78.2481C84.2966 10.112 88.762 14.009 88.762 19.5298C88.762 25.0505 84.2966 28.9476 78.2481 28.9476H71.6719V38H65.7046ZM71.6719 23.4674H77.5986C80.562 23.4674 82.5917 21.9248 82.5917 19.5298C82.5917 17.1347 80.562 15.5921 77.5986 15.5921H71.6719V23.4674ZM90.3109 38V33.1287L100.581 25.1723C103.91 22.5337 104.965 20.707 104.965 18.7585C104.965 16.4446 103.017 15.0644 100.744 15.0644C98.0237 15.0644 95.9534 16.4446 93.9237 18.7585L90.1079 15.0644C92.8683 11.5733 96.4 9.62484 100.906 9.62484C106.833 9.62484 111.136 13.2783 111.136 18.5149C111.136 22.2496 109.512 25.1317 104.641 28.6634L99.5663 32.601H111.379V38H90.3109ZM114.884 38V10.112H127.427C133.476 10.112 137.941 14.009 137.941 19.5298C137.941 25.0505 133.476 28.9476 127.427 28.9476H120.851V38H114.884ZM120.851 23.4674H126.778C129.741 23.4674 131.771 21.9248 131.771 19.5298C131.771 17.1347 129.741 15.5921 126.778 15.5921H120.851V23.4674ZM143.671 38.4871C141.56 38.4871 139.896 36.7822 139.896 34.7119C139.896 32.804 141.56 31.099 143.671 31.099C145.66 31.099 147.284 32.804 147.284 34.7119C147.284 36.7822 145.66 38.4871 143.671 38.4871ZM175.823 16.5258C180.207 16.5258 183.576 19.8951 183.576 24.6446V38.0406H177.893V25.6594C177.893 23.2238 176.351 21.5189 174.159 21.5189C171.804 21.5189 170.099 23.102 170.099 25.3347V38.0406H164.416V25.6594C164.416 23.2238 162.873 21.5189 160.722 21.5189C158.327 21.5189 156.663 23.102 156.663 25.3347V38H150.736V17.0129H156.663V19.7733C157.677 17.7842 159.748 16.5258 162.346 16.5258C165.228 16.5258 167.704 17.9872 169.003 20.3416C170.099 18.0278 172.697 16.5258 175.823 16.5258ZM197.245 33.2505C198.909 33.2505 200.939 32.4792 202.075 31.3832L205.851 35.2396C203.983 37.1881 200.371 38.4871 197.285 38.4871C191.034 38.4871 186.163 33.9 186.163 27.4456C186.163 21.1129 190.831 16.5258 196.961 16.5258C203.537 16.5258 207.393 21.5189 207.393 29.4347H192.252C192.942 31.7079 194.769 33.2505 197.245 33.2505ZM197.204 21.7624C194.972 21.7624 193.104 23.0614 192.333 25.1723H201.71C201.142 23.102 199.599 21.7624 197.204 21.7624Z" fill="url(#paint8_linear_180_3141)"/>
<defs>
<filter id="filter0_f_180_3141" x="6.20002" y="12.9363" width="47.0245" height="23.5931" filterUnits="userSpaceOnUse" color-interpolation-filters="sRGB">
<feFlood flood-opacity="0" result="BackgroundImageFix"/>
<feBlend mode="normal" in="SourceGraphic" in2="BackgroundImageFix" result="shape"/>
<feGaussianBlur stdDeviation="1.84286" result="effect1_foregroundBlur_180_3141"/>
</filter>
<filter id="filter1_f_180_3141" x="-2.60212" y="-0.636911" width="50.2802" height="47.7964" filterUnits="userSpaceOnUse" color-interpolation-filters="sRGB">
<feFlood flood-opacity="0" result="BackgroundImageFix"/>
<feBlend mode="normal" in="SourceGraphic" in2="BackgroundImageFix" result="shape"/>
<feGaussianBlur stdDeviation="1.88498" result="effect1_foregroundBlur_180_3141"/>
</filter>
<filter id="filter2_f_180_3141" x="-5.05633" y="-4.43939" width="54.1689" height="30.7921" filterUnits="userSpaceOnUse" color-interpolation-filters="sRGB">
<feFlood flood-opacity="0" result="BackgroundImageFix"/>
<feBlend mode="normal" in="SourceGraphic" in2="BackgroundImageFix" result="shape"/>
<feGaussianBlur stdDeviation="2.9534" result="effect1_foregroundBlur_180_3141"/>
</filter>
<linearGradient id="paint0_linear_180_3141" x1="50.4776" y1="23.5868" x2="10.5957" y2="48.7095" gradientUnits="userSpaceOnUse">
<stop stop-color="#4A9AE3"/>
<stop offset="1" stop-color="#62C1EF"/>
</linearGradient>
<linearGradient id="paint1_linear_180_3141" x1="49.3891" y1="29.8007" x2="43.5392" y2="16.4273" gradientUnits="userSpaceOnUse">
<stop stop-color="#62C1EF"/>
<stop offset="1" stop-color="#4A9AE3"/>
</linearGradient>
<linearGradient id="paint2_linear_180_3141" x1="51.2964" y1="23.6305" x2="11.1587" y2="49.3901" gradientUnits="userSpaceOnUse">
<stop stop-color="#4A9AE3"/>
<stop offset="1" stop-color="#5DB8EC"/>
</linearGradient>
<linearGradient id="paint3_linear_180_3141" x1="43.9612" y1="8.99404" x2="-29.3753" y2="51.4099" gradientUnits="userSpaceOnUse">
<stop stop-color="#4A9AE3"/>
<stop offset="1" stop-color="white"/>
</linearGradient>
<linearGradient id="paint4_linear_180_3141" x1="43.9612" y1="8.99404" x2="-29.3753" y2="51.4099" gradientUnits="userSpaceOnUse">
<stop stop-color="#4A9AE3"/>
<stop offset="1" stop-color="white"/>
</linearGradient>
<linearGradient id="paint5_linear_180_3141" x1="44.1724" y1="8.21327" x2="-0.466617" y2="32.8463" gradientUnits="userSpaceOnUse">
<stop stop-color="#4A9AE3"/>
<stop offset="1" stop-color="#D2E9FF"/>
</linearGradient>
<linearGradient id="paint6_linear_180_3141" x1="44.1724" y1="8.21327" x2="-0.466617" y2="32.8463" gradientUnits="userSpaceOnUse">
<stop stop-color="#4A9AE3"/>
<stop offset="1" stop-color="#D2E9FF"/>
</linearGradient>
<linearGradient id="paint7_linear_180_3141" x1="40.085" y1="9.11837" x2="-2.73862" y2="-2.49737" gradientUnits="userSpaceOnUse">
<stop stop-color="#62C1EF"/>
<stop offset="1" stop-color="#4A9AE3"/>
</linearGradient>
<linearGradient id="paint8_linear_180_3141" x1="135.856" y1="2.39755" x2="135.856" y2="46.923" gradientUnits="userSpaceOnUse">
<stop stop-color="#A9D6FE"/>
<stop offset="1" stop-color="#73C5F4"/>
</linearGradient>
</defs>
</svg>
