<svg width="54" height="49" viewBox="0 0 54 49" fill="none" xmlns="http://www.w3.org/2000/svg">
<path d="M14.2366 28.9449L18.9977 43.5083C19.3361 44.5435 20.6103 44.9128 21.45 44.2196L35.6695 32.4814C35.6695 32.4814 20.5593 26.5873 20.5593 26.9088C20.5593 27.2303 14.2366 28.9449 14.2366 28.9449Z" fill="#4A9AE3"/>
<path d="M51.753 0.954699C42.467 4.62773 12.4935 16.9101 1.14898 21.5637C-0.348966 22.178 -0.259075 24.3268 1.28323 24.8182L14.236 28.9443L18.9823 43.4613C19.173 44.0451 19.6551 44.4215 20.1929 44.5228C20.6294 44.6048 21.2735 32.7665 21.2735 32.7665C21.2735 32.7665 34.8901 42.8647 41.349 47.6341C42.9404 48.809 45.2125 47.9254 45.5893 45.9838C47.5132 36.0678 52.3242 11.2731 53.9685 2.79691C54.2162 1.52271 52.9605 0.477366 51.753 0.954699Z" fill="#62C1EF"/>
<path d="M21.2741 32.7672L20.2942 32.7141L20.2942 32.7144L20.2941 32.716L20.2937 32.7222L20.2924 32.7473L20.2869 32.8457C20.2821 32.9319 20.275 33.0586 20.2658 33.2199C20.2474 33.5424 20.2206 34.0034 20.1871 34.5563C20.1201 35.6626 20.0263 37.1355 19.9189 38.6046C19.8236 39.9087 19.7183 41.2012 19.6123 42.2296L15.4129 29.385L37.517 16.1639L20.6022 32.0519L20.3156 32.3212L20.2942 32.714L21.2741 32.7672Z" fill="#4A9AE3" stroke="#4A9AE3" stroke-width="1.96272"/>
</svg>
